<svg width="64" height="64" viewBox="0 0 64 64" xmlns="http://www.w3.org/2000/svg" xmlns:xlink="http://www.w3.org/1999/xlink"><title>Group</title><defs><circle id="b" cx="30" cy="30" r="30"/><filter x="-50%" y="-50%" width="200%" height="200%" filterUnits="objectBoundingBox" id="a"><feOffset dy="2" in="SourceAlpha" result="shadowOffsetOuter1"/><feGaussianBlur stdDeviation="1" in="shadowOffsetOuter1" result="shadowBlurOuter1"/><feColorMatrix values="0 0 0 0 0 0 0 0 0 0 0 0 0 0 0 0 0 0 0.149003623 0" in="shadowBlurOuter1"/></filter></defs><g fill="none" fill-rule="evenodd"><g transform="translate(2)"><use fill="#000" filter="url(#a)" xlink:href="#b"/><use fill="#FFF" xlink:href="#b"/></g><path d="M47 20.96c-1.104.5-2.29.84-3.535.993 1.27-.78 2.247-2.018 2.707-3.49-1.19.722-2.507 1.247-3.91 1.53C41.143 18.766 39.543 18 37.77 18c-3.4 0-6.155 2.825-6.155 6.31 0 .495.054.977.16 1.44-5.116-.265-9.65-2.777-12.687-6.595-.53.932-.833 2.016-.833 3.173 0 2.19 1.087 4.122 2.738 5.253-1.01-.03-1.958-.315-2.787-.788v.08c0 3.057 2.12 5.608 4.936 6.188-.516.144-1.06.22-1.62.22-.398 0-.783-.038-1.16-.112.784 2.507 3.057 4.332 5.75 4.383-2.106 1.693-4.76 2.702-7.644 2.702-.497 0-.986-.03-1.468-.088C19.724 41.954 22.96 43 26.435 43c11.32 0 17.512-9.617 17.512-17.957 0-.273-.006-.545-.018-.816 1.2-.89 2.245-2.002 3.07-3.267z" fill="#37A1F2"/></g></svg>